<?xml version="1.0" encoding="UTF-8"?>
<svg version="1.1" xmlns="http://www.w3.org/2000/svg" width="128" height="128">
<path d="M0 0 C7.16616349 5.17356192 12.4611135 11.88922028 14.58203125 20.55859375 C14.81524216 24.52097571 14.77054872 28.46619457 14.70703125 32.43359375 C14.69800781 33.50351562 14.68898438 34.5734375 14.6796875 35.67578125 C14.65622588 38.30348231 14.62035821 40.93106747 14.58203125 43.55859375 C18.21203125 43.55859375 21.84203125 43.55859375 25.58203125 43.55859375 C25.58203125 63.35859375 25.58203125 83.15859375 25.58203125 103.55859375 C-2.79796875 103.55859375 -31.17796875 103.55859375 -60.41796875 103.55859375 C-60.41796875 83.75859375 -60.41796875 63.95859375 -60.41796875 43.55859375 C-56.78796875 43.55859375 -53.15796875 43.55859375 -49.41796875 43.55859375 C-49.48757812 41.9653125 -49.5571875 40.37203125 -49.62890625 38.73046875 C-50.34817847 15.44770041 -50.34817847 15.44770041 -41.5546875 5.4375 C-30.38874409 -5.32566389 -13.50011884 -8.04772835 0 0 Z M-35.19140625 16.58203125 C-40.55096482 25.21877213 -38.41796875 32.96199915 -38.41796875 43.55859375 C-24.55796875 43.55859375 -10.69796875 43.55859375 3.58203125 43.55859375 C4.75475787 26.93278964 4.75475787 26.93278964 -2.06640625 13.76953125 C-7.56395048 8.7041084 -12.40750526 7.06176555 -19.859375 7.25 C-26.57403995 8.05986035 -30.92142446 11.54870076 -35.19140625 16.58203125 Z M-25.41796875 58.55859375 C-27.74677056 61.77455816 -27.74223665 64.66737899 -27.41796875 68.55859375 C-26.21051931 71.76335999 -26.21051931 71.76335999 -23.41796875 73.55859375 C-23.00390625 76.5 -23.00390625 76.5 -22.79296875 80.12109375 C-22.71820313 81.31863281 -22.6434375 82.51617187 -22.56640625 83.75 C-22.51742187 84.67683594 -22.4684375 85.60367188 -22.41796875 86.55859375 C-19.11796875 86.55859375 -15.81796875 86.55859375 -12.41796875 86.55859375 C-12.38058594 85.65496094 -12.34320313 84.75132813 -12.3046875 83.8203125 C-12.23894531 82.64082031 -12.17320313 81.46132812 -12.10546875 80.24609375 C-12.04746094 79.07433594 -11.98945312 77.90257812 -11.9296875 76.6953125 C-11.38891786 73.38051844 -10.96124291 72.57882952 -8.41796875 70.55859375 C-7.00796211 67.73858048 -7.17248424 65.6885212 -7.41796875 62.55859375 C-8.69485721 59.74943914 -9.72896692 58.05752611 -12.23046875 56.24609375 C-17.40598926 54.61950159 -21.14508195 55.23523735 -25.41796875 58.55859375 Z " fill="#717171" transform="translate(81.41796875,14.44140625)"/>
</svg>
